# xmcd CD database file
# Copyright (C) 1997 Ti Kan
#
# Track frame offsets:
#  150
#  15489
#  32694
#  50072
#  63879
#  80335
#  92623
#  110470
#  124779
#  144035
#  162975
#  177654
#  193680
#
# Disc length: 2829 seconds
#
# Revision: 1
# Processed by: cddbd v1.4b41PL1 Copyright (c) Steve Scherf et al.
# Submitted via: CDWizzard Release:4.30
#
DISCID=a50b0b0d
DTITLE=Corbin/Hanner - EVERY STRANGER HAS A STORY
DYEAR=1900
DGENRE=
TTITLE0=SHE RIDES WILD HORSES
TTITLE1=IF IT GETS YOU THROUGH THE NIGHT
TTITLE2=HOW DID YOU DO IT
TTITLE3=WORKIN' MY WAY DOWN
TTITLE4=A LITTLE SOUL
TTITLE5=MY EVIL TWIN
TTITLE6=THIS SIDE OF TOWN
TTITLE7=HOPELESS ROMANTIC
TTITLE8=EVERY STRANGER HAS A STORY
TTITLE9=BIG BEL AIRE
TTITLE10=IF I'D NEVER MET YOU
TTITLE11=IN A PERFECT WORLD
TTITLE12=BOULEVARD OF BROKEN DREAMS
EXTD=
EXTT0=
EXTT1=
EXTT2=
EXTT3=
EXTT4=
EXTT5=
EXTT6=
EXTT7=
EXTT8=
EXTT9=
EXTT10=
EXTT11=
EXTT12=
PLAYORDER=
